<svg width="400" height="400" xmlns="http://www.w3.org/2000/svg">

 <g>
  <title>Layer 1</title>
  <g id="svg_20">
   <line id="svg_12" y2="91" x2="8" y1="57" x1="38" stroke-width="10" stroke="#666666" fill="none"/>
   <line id="svg_14" y2="130" x2="8" y1="96" x1="38" stroke-width="10" stroke="#666666" fill="none"/>
   <line id="svg_15" y2="182" x2="8" y1="148" x1="38" stroke-width="10" stroke="#666666" fill="none"/>
   <line id="svg_16" y2="232" x2="8" y1="198" x1="38" stroke-width="10" stroke="#666666" fill="none"/>
   <line id="svg_17" y2="273" x2="8" y1="239" x1="38" stroke-width="10" stroke="#666666" fill="none"/>
   <line id="svg_18" y2="320" x2="8" y1="286" x1="38" stroke-width="10" stroke="#666666" fill="none"/>
   <line id="svg_19" y2="360" x2="8" y1="326" x1="38" stroke-width="10" stroke="#666666" fill="none"/>
  </g>
  <path stroke-width="10" id="svg_5" d="m34,59l1,282l328,-3c0,0 36,-53 -23,-138c-59,-85 -91,-104 -180,-125c-89,-21 -98,-19 -126,-16z" stroke="#000" fill="#000000"/>
  <path id="svg_6" d="m66,151l3,150l111,-2c0,0 10,-90 -37,-117c-47,-27 -59,-31 -77,-31z" stroke="#000" fill="#ffffff"/>
  <path id="svg_8" d="m233,297l-4,-126c0,0 49,4 63,40c14,36 32,88 34,89" opacity="NaN" stroke="#000" fill="#ffffff"/>
  <path id="svg_9" d="m137,146c14,11 42,38 55,27c13,-11 45,-21 16,-35c-29,-14 -51,-24 -62,-18c-11,6 -23,15 -9,26z" stroke="#000" fill="#ffffff"/>
  <path id="svg_21" d="m364,310" opacity="NaN" stroke-width="20" stroke="#007fff" fill="none"/>
  <g id="svg_23">
   <line stroke="#007fff" stroke-width="10" id="svg_11" y2="278" x2="363" y1="25" x1="363" fill="none"/>
   <path stroke="#007fff" id="svg_22" d="m361.29825,311l18.70175,-72l-41,3.78947l22.29825,68.21053z" stroke-width="5" fill="#007fff"/>
  </g>
 </g>
</svg>